<svg height="512pt" viewBox="0 0 512 512" width="512pt" xmlns="http://www.w3.org/2000/svg"><g fill="#464f5d"><path d="m273.65625 441.378906h-17.65625c-4.875 0-8.828125-3.953125-8.828125-8.828125s3.953125-8.828125 8.828125-8.828125h17.65625c4.875 0 8.828125 3.953125 8.828125 8.828125s-3.953125 8.828125-8.828125 8.828125zm0 0"/><path d="m397.242188 379.585938c-4.875 0-8.828126-3.953126-8.828126-8.828126v-17.65625c0-4.875 3.953126-8.824218 8.828126-8.824218s8.828124 3.949218 8.828124 8.824218v17.65625c0 4.875-3.953124 8.828126-8.828124 8.828126zm0 0"/><path d="m379.585938 441.378906h-8.828126c-4.875 0-8.828124-3.953125-8.828124-8.828125s3.953124-8.828125 8.828124-8.828125h8.828126c4.871093-.003906 8.820312-3.953125 8.828124-8.824218v-8.828126c0-4.875 3.953126-8.828124 8.828126-8.828124s8.828124 3.953124 8.828124 8.828124v8.828126c-.015624 14.617187-11.863281 26.464843-26.484374 26.480468zm0 0"/><path d="m335.449219 441.378906h-26.484375c-4.875 0-8.828125-3.953125-8.828125-8.828125s3.953125-8.828125 8.828125-8.828125h26.484375c4.875 0 8.828125 3.953125 8.828125 8.828125s-3.953125 8.828125-8.828125 8.828125zm0 0"/><path d="m114.757812 167.722656c-4.875 0-8.828124-3.949218-8.828124-8.824218v-17.65625c0-4.875 3.953124-8.828126 8.828124-8.828126s8.828126 3.953126 8.828126 8.828126v17.65625c0 4.875-3.953126 8.824218-8.828126 8.824218zm0 0"/><path d="m114.757812 114.757812c-4.875 0-8.828124-3.953124-8.828124-8.828124v-8.828126c.015624-14.617187 11.863281-26.464843 26.484374-26.480468h8.828126c4.875 0 8.828124 3.953125 8.828124 8.828125s-3.953124 8.828125-8.828124 8.828125h-8.828126c-4.871093.003906-8.820312 3.953125-8.828124 8.824218v8.828126c0 4.875-3.953126 8.828124-8.828126 8.828124zm0 0"/><path d="m256 88.277344h-17.65625c-4.875 0-8.828125-3.953125-8.828125-8.828125s3.953125-8.828125 8.828125-8.828125h17.65625c4.875 0 8.828125 3.953125 8.828125 8.828125s-3.953125 8.828125-8.828125 8.828125zm0 0"/><path d="m203.035156 88.277344h-26.484375c-4.875 0-8.828125-3.953125-8.828125-8.828125s3.953125-8.828125 8.828125-8.828125h26.484375c4.875 0 8.828125 3.953125 8.828125 8.828125s-3.953125 8.828125-8.828125 8.828125zm0 0"/></g><path d="m229.515625 406.070312v-238.347656c0-4.875-3.949219-8.824218-8.824219-8.824218h-211.863281c-4.875 0-8.828125 3.949218-8.828125 8.824218v335.449219c0 4.875 3.953125 8.828125 8.828125 8.828125h211.863281c4.875 0 8.824219-3.953125 8.824219-8.828125zm0 0" fill="#b0d3f0"/><path d="m282.484375 105.929688v238.347656c0 4.875 3.949219 8.824218 8.824219 8.824218h211.863281c4.875 0 8.828125-3.949218 8.828125-8.824218v-335.449219c0-4.875-3.953125-8.828125-8.828125-8.828125h-211.863281c-4.875 0-8.824219 3.953125-8.824219 8.828125zm0 0" fill="#b0d3f0"/><path d="m471.65625 198.53125c-9.179688 5.121094-31.601562 13.332031-74.414062 13.332031-42.816407 0-65.238282-8.210937-74.417969-13.332031-4.5625-2.664062-6.324219-8.378906-4.058594-13.152344l16.507813-34.339844c20.242187 5.21875 41.0625 7.859376 61.96875 7.859376 20.902343 0 41.726562-2.640626 61.96875-7.859376l16.507812 34.339844c2.265625 4.773438.5 10.488282-4.0625 13.152344zm0 0" fill="#3b97d3"/><path d="m459.210938 151.039062c-20.242188 5.21875-41.066407 7.859376-61.96875 7.859376-20.90625 0-41.726563-2.640626-61.96875-7.859376l23.746093-49.167968c12.566407 2.660156 25.375 4.023437 38.222657 4.058594 12.847656-.035157 25.65625-1.398438 38.222656-4.058594zm0 0" fill="#f0c419"/><path d="m435.464844 101.871094c-12.566406 2.660156-25.375 4.023437-38.222656 4.058594-12.847657-.035157-25.65625-1.398438-38.222657-4.058594l29.394531-61c1.625-3.398438 5.058594-5.558594 8.828126-5.558594 3.765624 0 7.199218 2.160156 8.828124 5.558594zm0 0" fill="#ff5364"/><path d="m441.378906 326.621094h-123.585937c-4.875 0-8.828125-3.953125-8.828125-8.828125s3.953125-8.828125 8.828125-8.828125h123.585937c4.875 0 8.828125 3.953125 8.828125 8.828125s-3.953125 8.828125-8.828125 8.828125zm0 0" fill="#2980ba"/><path d="m379.585938 291.308594h-61.792969c-4.875 0-8.828125-3.949219-8.828125-8.824219 0-4.878906 3.953125-8.828125 8.828125-8.828125h61.792969c4.875 0 8.828124 3.949219 8.828124 8.828125 0 4.875-3.953124 8.824219-8.828124 8.824219zm0 0" fill="#2980ba"/><path d="m476.691406 256h-158.898437c-4.875 0-8.828125-3.953125-8.828125-8.828125s3.953125-8.828125 8.828125-8.828125h158.898437c4.875 0 8.824219 3.953125 8.824219 8.828125s-3.949219 8.828125-8.824219 8.828125zm0 0" fill="#2980ba"/><path d="m170.902344 288.132812-112.289063 112.285157c-20.078125-20.050781-27.925781-49.296875-20.585937-76.710938 7.335937-27.414062 28.75-48.824219 56.164062-56.164062 27.410156-7.339844 56.65625.511719 76.710938 20.589843zm0 0" fill="#3b97d3"/><path d="m170.902344 400.417969c-14.875 14.921875-35.074219 23.304687-56.144532 23.304687-21.066406 0-41.269531-8.382812-56.144531-23.304687l56.144531-56.140625zm0 0" fill="#ff5364"/><path d="m194.207031 344.277344c.027344 21.070312-8.363281 41.28125-23.304687 56.140625l-56.144532-56.140625 56.144532-56.144532c14.941406 14.859376 23.332031 35.070313 23.304687 56.144532zm0 0" fill="#f0c419"/><path d="m44.136719 194.207031h141.242187c4.875 0 8.828125 3.953125 8.828125 8.828125v17.65625c0 4.875-3.953125 8.824219-8.828125 8.824219h-141.242187c-4.875 0-8.828125-3.949219-8.828125-8.824219v-17.65625c0-4.875 3.953125-8.828125 8.828125-8.828125zm0 0" fill="#2980ba"/><path d="m114.757812 485.515625h-79.449218c-4.875 0-8.824219-3.949219-8.824219-8.824219 0-4.878906 3.949219-8.828125 8.824219-8.828125h79.449218c4.875 0 8.828126 3.949219 8.828126 8.828125 0 4.875-3.953126 8.824219-8.828126 8.824219zm0 0" fill="#2980ba"/><path d="m194.207031 485.515625h-44.136719c-4.875 0-8.828124-3.949219-8.828124-8.824219 0-4.878906 3.953124-8.828125 8.828124-8.828125h44.136719c4.875 0 8.828125 3.949219 8.828125 8.828125 0 4.875-3.953125 8.824219-8.828125 8.824219zm0 0" fill="#2980ba"/><path d="m256 432.550781c0 14.628907-11.855469 26.484375-26.484375 26.484375-14.625 0-26.480469-11.855468-26.480469-26.484375 0-14.625 11.855469-26.480469 26.480469-26.480469 14.628906 0 26.484375 11.855469 26.484375 26.480469zm0 0" fill="#f0c419"/><path d="m308.964844 79.449219c0 14.625-11.855469 26.480469-26.480469 26.480469-14.628906 0-26.484375-11.855469-26.484375-26.480469 0-14.628907 11.855469-26.484375 26.484375-26.484375 14.625 0 26.480469 11.855468 26.480469 26.484375zm0 0" fill="#f0c419"/></svg>