<svg height="512" viewBox="0 0 512 512" width="512" xmlns="http://www.w3.org/2000/svg"><g id="Flat"><path d="m344 488h-136a16 16 0 0 1 -16-16 16 16 0 0 1 16-16h136z" fill="#cbdbe7"/><rect fill="#adb9c3" height="32" rx="16" width="136" x="296" y="456"/><path d="m417.75377 456h-103.50757a8 8 0 0 1 -7.76114-9.94029l20-80a8 8 0 0 1 7.76114-6.05971h103.50757a8 8 0 0 1 7.76114 9.94029l-20 80a8 8 0 0 1 -7.76114 6.05971z" fill="#cbdbe7"/><path d="m385.75377 456h-71.50757a8 8 0 0 1 -7.76114-9.94029l20-80a8 8 0 0 1 7.76114-6.05971h71.50757a8 8 0 0 1 7.76114 9.94029l-20 80a8 8 0 0 1 -7.76114 6.05971z" fill="#a9ca2a"/><path d="m80 360h80v128h-80z" fill="#91d3ee"/><circle cx="120" cy="464" fill="#37a5ca" r="8"/><path d="m264 400v-120h-16v120h-136v16h240v-16z" fill="#37a5ca"/><path d="m376 184a119.87407 119.87407 0 1 1 -89.65991-116.12988 119.626 119.626 0 0 1 89.65991 116.12988z" fill="#91d3ee"/><path d="m376 184a119.626 119.626 0 0 1 -39.25 88.75l-16.75-16.75 8-24-32-24 16-16v-32h-24l-24-40 22.34009-52.12988a120.05685 120.05685 0 0 1 89.65991 116.12988z" fill="#a9ca2a"/><path d="m184 208 40 16-8 16h-32l-13.89014 27.78a119.98559 119.98559 0 0 1 19.74024-183.90988l42.1499 36.12988-16 40-40-16-8 24 16 8z" fill="#a9ca2a"/><path d="m152 160h-128v-136h128v80l32 32h-32z" fill="#f5e3a1"/><path d="m80 48 40 40v48h-64v-88z" fill="#91d3ee"/><path d="m120 88-40-40v40z" fill="#37a5ca"/><g fill="#f5e3a1"><path d="m352 160h128v-136h-128v80l-32 32h32z"/><path d="m152 328h-128v-136h128v48h32l-32 32z"/><path d="m352 328h128v-136h-128v48h-32l32 32z"/></g><path d="m80 216 40 40v48h-64v-88z" fill="#91d3ee"/><path d="m120 256-40-40v40z" fill="#37a5ca"/><path d="m408 48 40 40v48h-64v-88z" fill="#91d3ee"/><path d="m448 88-40-40v40z" fill="#37a5ca"/><path d="m408 216 40 40v48h-64v-88z" fill="#91d3ee"/><path d="m448 256-40-40v40z" fill="#37a5ca"/></g></svg>