<svg height="512" viewBox="0 0 512 512" width="512" xmlns="http://www.w3.org/2000/svg"><g id="Flat"><path d="m24 184h272v80h-272z" fill="#cbdbe7"/><path d="m24 296h272v80h-272z" fill="#cbdbe7"/><path d="m24 408h272v80h-272z" fill="#cbdbe7"/><path d="m48 376h32v32h-32z" fill="#394f5a"/><path d="m240 376h32v32h-32z" fill="#394f5a"/><path d="m48 264h32v32h-32z" fill="#394f5a"/><path d="m240 264h32v32h-32z" fill="#394f5a"/><path d="m48 216h64v16h-64z" fill="#a9ca2a"/><circle cx="136" cy="224" fill="#eb4042" r="8"/><circle cx="168" cy="224" fill="#37a5ca" r="8"/><path d="m48 328h64v16h-64z" fill="#a9ca2a"/><circle cx="136" cy="336" fill="#eb4042" r="8"/><circle cx="168" cy="336" fill="#37a5ca" r="8"/><path d="m48 440h64v16h-64z" fill="#a9ca2a"/><circle cx="136" cy="448" fill="#eb4042" r="8"/><circle cx="168" cy="448" fill="#37a5ca" r="8"/><path d="m488 320h-216l-32 32v-32h-24v-296h272z" fill="#f3f0c7"/><path d="m376 248h-128v-192h80l48 48z" fill="#91d3ee"/><g fill="#37a5ca"><path d="m328 56v48h48z"/><path d="m272 96h32v16h-32z"/><path d="m272 128h32v16h-32z"/><path d="m320 128h32v16h-32z"/><path d="m272 160h48v16h-48z"/><path d="m336 160h16v16h-16z"/><path d="m272 192h16v16h-16z"/><path d="m304 192h48v16h-48z"/></g><path d="m360 224h96v64h-96z" fill="#a9ca2a"/><path d="m448 224h-16v-16a24 24 0 0 0 -48 0v16h-16v-16a40 40 0 0 1 80 0z" fill="#a9ca2a"/><path d="m432 216h16v8h-16z" fill="#68bf40"/><path d="m368 216h16v8h-16z" fill="#68bf40"/><path d="m456 224v64h-96v-16h16a64.03536 64.03536 0 0 0 61.99-48z" fill="#68bf40"/></g></svg>